<?xml version="1.0" standalone="no"?>
<!DOCTYPE svg PUBLIC "-//W3C//DTD SVG 20010904//EN"
 "http://www.w3.org/TR/2001/REC-SVG-20010904/DTD/svg10.dtd">
<svg version="1.0" xmlns="http://www.w3.org/2000/svg"
 width="83.000000pt" height="83.000000pt" viewBox="0 0 83.000000 83.000000"
 preserveAspectRatio="xMidYMid meet">
<metadata>
Created by potrace 1.14, written by Peter Selinger 2001-2017
</metadata>
<g transform="translate(0.000000,83.000000) scale(0.100000,-0.100000)"
fill="#000000" stroke="none">
<path d="M0 704 c0 -88 3 -124 13 -127 9 -4 9 -6 0 -6 -10 -1 -13 -65 -13
-287 l0 -285 32 23 c18 13 73 43 123 68 75 38 93 51 108 83 10 20 23 37 28 37
14 0 10 33 -6 54 -8 11 -15 28 -15 38 0 10 -11 23 -24 28 -18 6 -27 21 -36 59
-14 58 -9 81 18 81 10 0 25 13 35 29 21 36 21 45 2 37 -23 -9 -18 4 15 35 32
31 45 35 56 18 5 -8 8 -8 13 0 10 16 71 -6 71 -26 0 -8 4 -12 9 -9 5 3 11 -4
15 -17 9 -33 8 -37 -9 -37 -8 0 -17 -11 -21 -25 -3 -14 -11 -25 -18 -25 -6 0
-5 -4 3 -9 10 -6 12 -22 9 -55 -4 -29 -1 -47 6 -49 8 -3 7 -9 -3 -20 -12 -15
-11 -17 6 -17 27 0 27 -37 0 -46 -20 -6 -20 -7 -2 -20 17 -13 17 -14 0 -40
-12 -19 -14 -29 -6 -37 6 -6 11 -19 11 -28 0 -21 31 -33 63 -24 18 5 16 1 -13
-28 -36 -36 -48 -57 -29 -57 5 0 7 -4 4 -10 -4 -6 10 -10 34 -10 36 0 40 3 50
32 6 18 14 53 17 78 8 55 10 59 24 29 6 -13 50 -50 99 -82 67 -44 96 -57 124
-57 l38 0 -5 348 c-2 191 -4 354 -5 362 -1 8 2 35 5 59 5 35 4 42 -7 35 -12
-7 -12 -5 0 9 12 16 5 17 -97 17 l-110 0 -10 -29 c-9 -26 -8 -32 13 -45 29
-19 39 -9 21 19 -13 20 -12 21 15 21 28 0 28 0 11 -19 -16 -19 -16 -19 5 -6
18 11 25 11 35 1 9 -9 9 -12 -4 -12 -19 0 -17 -62 3 -86 10 -12 10 -20 1 -35
-7 -11 -10 -24 -7 -29 4 -6 2 -10 -3 -10 -12 0 -11 -33 2 -43 7 -6 6 -7 -4 -4
-8 2 -16 13 -18 25 -2 12 -11 22 -20 22 -13 0 -13 2 3 14 11 8 16 19 12 30 -8
21 -27 21 -28 -1 0 -11 -3 -13 -6 -5 -2 6 -11 12 -19 12 -22 0 -17 15 11 30
13 7 22 16 20 20 -3 5 2 10 10 14 17 6 20 36 4 36 -6 0 -9 -7 -5 -15 6 -17
-19 -21 -29 -5 -3 6 -13 10 -22 10 -13 0 -13 -3 -3 -15 17 -20 7 -19 -31 4
-18 11 -25 21 -18 23 10 3 9 10 -4 28 -16 23 -17 23 -18 5 -1 -11 -1 -23 0
-27 1 -10 0 -10 -72 -12 -46 -1 -54 1 -42 11 14 10 15 15 4 35 -7 13 -13 26
-12 29 3 11 -145 10 -152 -1 -5 -8 -10 -8 -20 0 -9 8 -14 6 -19 -5 -7 -19 -26
-20 -26 0 0 12 -17 15 -95 13 l-95 -1 0 -123z m350 107 c0 -4 12 -8 27 -7 18
1 27 -4 29 -18 2 -14 -2 -17 -22 -13 -25 4 -34 -7 -11 -16 7 -3 5 -6 -5 -6
-10 -1 -18 -5 -18 -10 0 -5 -9 -11 -20 -14 -22 -6 -28 9 -7 16 18 6 -34 -1
-62 -9 -18 -5 -23 -4 -19 7 2 8 16 15 31 17 18 2 24 8 20 18 -4 12 0 15 18 12
18 -2 24 2 23 15 -1 9 2 17 7 17 5 0 9 -4 9 -9z m385 -51 c3 -5 1 -10 -4 -10
-6 0 -11 5 -11 10 0 6 2 10 4 10 3 0 8 -4 11 -10z m-544 -25 c1 -8 2 -23 3
-32 1 -10 5 -24 9 -30 13 -20 0 -15 -27 11 -30 27 -32 36 -11 36 9 0 12 6 9
15 -4 8 -1 15 5 15 6 0 12 -7 12 -15z m39 5 c0 -5 -5 -10 -11 -10 -5 0 -7 5
-4 10 3 6 8 10 11 10 2 0 4 -4 4 -10z m500 -52 c0 -5 -7 -8 -15 -8 -15 0 -20
21 -8 33 7 7 23 -11 23 -25z m15 22 c-3 -5 -1 -10 5 -10 6 0 8 -4 5 -10 -3 -5
1 -10 9 -10 9 0 16 -4 16 -10 0 -12 -10 -13 -26 -2 -17 11 -28 52 -14 52 6 0
8 -4 5 -10z m-501 -29 c-2 -3 -12 3 -22 13 -16 17 -16 18 5 5 12 -7 20 -15 17
-18z m176 18 c0 -5 -4 -8 -9 -4 -5 3 -12 1 -16 -5 -3 -5 -12 -10 -18 -10 -7 0
-3 7 7 15 23 18 36 19 36 4z m-253 -40 c-6 -10 -16 -19 -20 -19 -5 0 -7 -6 -4
-13 3 -7 0 -20 -7 -28 -13 -19 -56 -34 -56 -20 0 22 13 39 26 34 8 -3 11 -10
7 -17 -3 -6 0 -6 8 2 11 10 11 16 1 32 -16 26 -15 29 7 23 16 -4 19 -1 14 15
-4 17 -1 20 15 15 18 -4 19 -8 9 -24z m193 23 c0 -4 -14 -13 -30 -20 -17 -8
-28 -18 -24 -23 3 -5 -4 -9 -15 -9 -11 0 -23 5 -26 10 -3 6 1 10 10 10 8 0 18
6 21 14 3 8 12 12 19 10 7 -3 16 -1 20 5 7 13 25 15 25 3z m-320 -28 c0 -8 -5
-12 -10 -9 -6 4 -8 11 -5 16 9 14 15 11 15 -7z m767 1 c0 -8 -4 -12 -9 -9 -5
3 -6 10 -3 15 9 13 12 11 12 -6z m-757 -29 c0 -2 -7 -6 -15 -10 -8 -3 -15 -1
-15 4 0 6 7 10 15 10 8 0 15 -2 15 -4z m210 -7 c0 -4 -4 -10 -10 -14 -5 -3 -7
-12 -3 -20 3 -8 0 -15 -6 -15 -6 0 -11 7 -11 15 0 8 -8 15 -17 15 -15 0 -15 1
1 13 20 15 46 18 46 6z m370 -20 c0 -5 -4 -9 -10 -9 -5 0 -10 7 -10 16 0 8 5
12 10 9 6 -3 10 -10 10 -16z m160 2 c0 -14 -29 -21 -36 -9 -4 6 -3 8 4 4 6 -3
13 -2 17 4 8 12 15 13 15 1z m-580 -21 c0 -5 -5 -10 -11 -10 -5 0 -7 5 -4 10
3 6 8 10 11 10 2 0 4 -4 4 -10z m450 -30 c0 -5 -5 -10 -11 -10 -5 0 -7 5 -4
10 3 6 8 10 11 10 2 0 4 -4 4 -10z"/>
<path d="M445 817 c-6 -7 -9 -20 -7 -30 3 -14 7 -16 18 -6 15 12 20 49 7 49
-5 -1 -13 -6 -18 -13z"/>
<path d="M337 484 c3 -9 0 -20 -7 -24 -21 -13 11 -41 33 -28 21 11 22 54 1 62
-26 10 -34 7 -27 -10z"/>
<path d="M287 429 c7 -7 15 -10 18 -7 3 3 -2 9 -12 12 -14 6 -15 5 -6 -5z"/>
<path d="M310 300 c0 -5 7 -7 15 -4 8 4 15 8 15 10 0 2 -7 4 -15 4 -8 0 -15
-4 -15 -10z"/>
<path d="M380 65 c7 -8 17 -12 22 -9 6 4 5 10 -3 15 -22 14 -33 10 -19 -6z"/>
<path d="M580 65 c0 -11 -3 -30 -6 -42 -5 -17 -2 -23 10 -23 18 0 22 45 6 70
-8 12 -10 12 -10 -5z"/>
<path d="M377 19 c3 -11 14 -19 25 -19 25 0 19 21 -9 31 -17 6 -20 4 -16 -12z"/>
</g>
</svg>
